HIERARCHY
ROOT SpineBase
{
  OFFSET 0.000000 0.000000 0.000000
  CHANNELS 6 Xposition Yposition Zposition Zrotation Xrotation Yrotation
  JOINT SpineMid
  {
    OFFSET -0.000000 30.422708 0.000000
    CHANNELS 3 Zrotation Xrotation Yrotation
    JOINT SpineShoulder
    {
      OFFSET -0.121176 22.528851 -0.513028
      CHANNELS 3 Zrotation Xrotation Yrotation
      JOINT Neck
      {
        OFFSET -0.022254 7.417911 -0.456802
        CHANNELS 3 Zrotation Xrotation Yrotation
        JOINT Head
        {
          OFFSET 5.228004 13.298119 3.571459
          CHANNELS 3 Zrotation Xrotation Yrotation
          End Site
          {
            OFFSET 0 0 0
          }
        }
      }
      JOINT ShoulderLeft
      {
        OFFSET -10.155891 -4.921150 -10.454954
        CHANNELS 3 Zrotation Xrotation Yrotation
        JOINT ElbowLeft
        {
          OFFSET -8.724268 -22.652738 -2.134036
          CHANNELS 3 Zrotation Xrotation Yrotation
          JOINT WristLeft
          {
            OFFSET 0.942937 -28.530481 -4.730947
            CHANNELS 3 Zrotation Xrotation Yrotation
            JOINT HandLeft
            {
              OFFSET -0.671129 -5.628498 0.088936
              CHANNELS 3 Zrotation Xrotation Yrotation
              JOINT HandTipLeft
              {
                OFFSET 0.576988 -5.607777 -0.386828
                CHANNELS 3 Zrotation Xrotation Yrotation
                End Site
                {
                  OFFSET 0 0 0
                }
              }
              JOINT ThumbLeft
              {
                OFFSET -2.401058 1.750757 -4.006560
                CHANNELS 3 Zrotation Xrotation Yrotation
                End Site
                {
                  OFFSET 0 0 0
                }
              }
            }
          }
        }
      }
      JOINT ShoulderRight
      {
        OFFSET 11.122209 -8.659015 7.832020
        CHANNELS 3 Zrotation Xrotation Yrotation
        JOINT ElbowRight
        {
          OFFSET 5.875127 -26.777870 6.733599
          CHANNELS 3 Zrotation Xrotation Yrotation
          JOINT WristRight
          {
            OFFSET 8.831833 -19.810857 5.016486
            CHANNELS 3 Zrotation Xrotation Yrotation
            JOINT HandRight
            {
              OFFSET 3.153699 -8.367326 -0.240398
              CHANNELS 3 Zrotation Xrotation Yrotation
              JOINT HandTipRight
              {
                OFFSET -0.069343 -2.399936 -0.905825
                CHANNELS 3 Zrotation Xrotation Yrotation
                End Site
                {
                  OFFSET 0 0 0
                }
              }
              JOINT ThumbRight
              {
                OFFSET -1.289279 -1.796550 -2.664848
                CHANNELS 3 Zrotation Xrotation Yrotation
                End Site
                {
                  OFFSET 0 0 0
                }
              }
            }
          }
        }
      }
    }
  }
  JOINT HipLeft
  {
    OFFSET -5.037529 1.050967 -7.345109
    CHANNELS 3 Zrotation Xrotation Yrotation
    JOINT KneeLeft
    {
      OFFSET 7.418216 -36.291680 -6.029070
      CHANNELS 3 Zrotation Xrotation Yrotation
      JOINT AnkleLeft
      {
        OFFSET 6.942998 -44.240434 -6.799330
        CHANNELS 3 Zrotation Xrotation Yrotation
        JOINT FootLeft
        {
          OFFSET 2.089594 -8.333948 -12.546614
          CHANNELS 3 Zrotation Xrotation Yrotation
          End Site
          {
            OFFSET 0 0 0
          }
        }
      }
    }
  }
  JOINT HipRight
  {
    OFFSET 6.290982 -0.446759 0.176320
    CHANNELS 3 Zrotation Xrotation Yrotation
    JOINT KneeRight
    {
      OFFSET -5.024715 -34.774496 -12.088143
      CHANNELS 3 Zrotation Xrotation Yrotation
      JOINT AnkleRight
      {
        OFFSET 2.583946 -7.788244 28.905608
        CHANNELS 3 Zrotation Xrotation Yrotation
        JOINT FootRight
        {
          OFFSET 2.593943 -7.855216 -12.699770
          CHANNELS 3 Zrotation Xrotation Yrotation
          End Site
          {
            OFFSET 0 0 0
          }
        }
      }
    }
  }
}
MOTION
Frames: 13
Frame Time: 0.033333
-73.040840 88.296139 434.400552 4.956057 -1.767886 -52.673325 0.024776 -0.738489 52.866774 -0.213231 -0.267363 0.175118 -3.314450 3.688324 -0.888841 0.000000 0.000000 0.000000 -3.985260 7.051199 -1.927076 4.558004 2.663033 1.270659 5.447835 7.561376 -1.386410 -4.671157 -22.228906 0.898757 0.000000 0.000000 0.000000 0.000000 0.000000 0.000000 -4.752085 1.388426 -0.533629 -3.566848 4.808466 1.232094 2.381843 -2.527844 -0.080725 -5.310375 0.780604 2.062644 0.000000 0.000000 0.000000 0.000000 0.000000 0.000000 -7.872023 -11.610333 53.189526 3.719203 -18.686993 -4.684117 10.388617 11.002431 -13.215538 0.000000 0.000000 0.000000 23.376731 4.923401 46.011576 -68.822157 78.140926 28.048481 61.960014 -58.600837 42.807092 0.000000 0.000000 0.000000
-72.516777 88.146683 432.519601 4.962345 -1.700498 -52.470932 0.103955 -0.784680 52.665937 -0.227978 -0.290156 0.176135 -2.951748 4.711932 -1.398619 0.000000 0.000000 0.000000 -4.365508 8.871129 -2.529780 5.963662 1.945415 1.931590 6.453516 11.898325 -2.365733 -3.641779 -25.095400 2.273840 0.000000 0.000000 0.000000 0.000000 0.000000 0.000000 -2.074842 -0.966612 -0.428425 -3.039595 5.310566 0.954653 2.907569 -1.395311 -0.401774 -1.905789 1.521120 -0.206215 0.000000 0.000000 0.000000 0.000000 0.000000 0.000000 -7.195421 -14.205825 52.841366 6.051539 -17.892602 -4.869740 8.568815 11.563687 -11.165595 0.000000 0.000000 0.000000 23.288185 8.460439 43.453216 -54.586561 67.944304 14.038410 55.715996 -62.423440 35.647852 0.000000 0.000000 0.000000
-71.766528 88.199911 430.916857 5.227389 -1.467331 -51.306873 0.174992 -0.900455 51.508549 -0.279164 -0.343017 0.184805 -2.848188 4.308606 -1.355075 0.000000 0.000000 0.000000 -5.009892 10.071976 -2.910549 7.271536 1.763600 2.394120 7.866719 16.143669 -3.516573 -3.153497 -28.044317 3.659741 0.000000 0.000000 0.000000 0.000000 0.000000 0.000000 3.041548 -3.470268 0.433525 0.255994 4.244421 0.294923 0.301798 -3.408185 -3.010858 -1.497130 5.541167 -0.680546 0.000000 0.000000 0.000000 0.000000 0.000000 0.000000 -7.150077 -16.855465 51.518559 8.235828 -17.317574 -5.195997 4.839195 8.463667 -6.068101 0.000000 0.000000 0.000000 23.054178 10.653907 40.658315 -52.643621 61.084561 14.151203 53.899873 -66.995839 28.769028 0.000000 0.000000 0.000000
-71.116089 88.208312 429.151688 5.270548 -1.279305 -50.302946 0.116713 -0.906808 50.495781 -0.310644 -0.295662 0.181214 -2.355366 2.376976 -0.834167 0.000000 0.000000 0.000000 -5.777703 10.766495 -3.113700 8.985234 2.023065 2.710897 8.717916 17.947875 -4.124654 -1.301984 -29.169682 5.245411 0.000000 0.000000 0.000000 0.000000 0.000000 0.000000 10.692597 -5.596789 2.248077 8.160208 -2.049120 -0.676745 -10.207787 -8.831043 -6.822905 6.540928 11.931836 -3.958075 0.000000 0.000000 0.000000 0.000000 0.000000 0.000000 -6.981505 -18.992481 50.369762 9.818293 -16.789030 -5.504095 6.489542 12.646705 -8.877056 0.000000 0.000000 0.000000 23.164150 11.808879 38.726707 -55.885724 59.316044 22.055865 44.168832 -72.119122 18.079692 0.000000 0.000000 0.000000
-70.189307 88.091923 427.358600 5.377222 -0.937386 -47.043716 0.095960 -0.881485 47.225273 -0.287392 -0.323106 0.187923 -1.218955 0.209473 -0.463072 0.000000 0.000000 0.000000 -6.133563 10.949052 -3.283426 9.480096 2.228760 2.903765 10.872865 20.771008 -5.167304 -2.518950 -32.413653 5.853380 0.000000 0.000000 0.000000 0.000000 0.000000 0.000000 19.649725 -5.435816 4.808118 22.037097 -12.520084 2.060792 -15.858718 -25.303749 -10.655016 36.020039 -11.200555 -24.346604 0.000000 0.000000 0.000000 0.000000 0.000000 0.000000 -7.890134 -20.648849 46.818056 10.758972 -16.347594 -5.777632 6.463377 11.339777 -9.216060 0.000000 0.000000 0.000000 23.505413 10.248607 35.899567 -60.771368 60.739821 32.483426 33.792952 -77.713478 5.945686 0.000000 0.000000 0.000000
-69.203808 87.894070 425.665149 5.228981 -0.564570 -42.477292 0.010956 -0.916522 42.635799 -0.305495 -0.335638 0.178224 0.925311 -2.939429 0.242007 0.000000 0.000000 0.000000 -5.643221 10.522602 -3.331952 8.822423 3.114224 2.882640 14.262034 21.006101 -5.567145 -7.240608 -31.237666 4.359664 0.000000 0.000000 0.000000 0.000000 0.000000 0.000000 29.390668 -1.616974 7.295138 39.107496 -17.078702 10.747472 -15.114951 -49.250886 -6.870250 48.706827 -39.661687 33.735476 0.000000 0.000000 0.000000 0.000000 0.000000 0.000000 -9.278442 -21.185106 41.881252 11.024824 -16.310114 -5.973353 6.367442 9.938148 -9.128627 0.000000 0.000000 0.000000 23.595740 7.870721 32.222379 -71.905172 64.306731 49.942315 18.833981 -80.411267 -11.311455 0.000000 0.000000 0.000000
-68.363189 87.661262 423.998749 5.034649 -0.232697 -37.352089 -0.115886 -0.919213 37.486780 -0.337858 -0.318273 0.164354 3.397454 -5.324049 0.659537 0.000000 0.000000 0.000000 -4.461354 9.755275 -3.380787 7.559942 4.508179 2.719776 15.037436 19.622272 -5.178808 -8.684900 -28.745551 3.732268 0.000000 0.000000 0.000000 0.000000 0.000000 0.000000 37.806425 4.842677 8.622163 45.897440 -19.021455 18.880493 -2.898333 -53.232930 2.407868 42.871697 -30.745589 49.036713 0.000000 0.000000 0.000000 0.000000 0.000000 0.000000 -10.343888 -21.879694 36.244637 11.346735 -15.395602 -5.981162 4.956455 6.870111 -7.129374 0.000000 0.000000 0.000000 23.875394 4.868129 28.212460 -79.655342 64.786423 64.237654 -11.818408 -76.514495 -38.118082 0.000000 0.000000 0.000000
-67.122499 87.558348 422.256089 4.639741 0.136504 -30.956619 -0.266466 -0.889917 31.060964 -0.353551 -0.294184 0.142683 6.380634 -7.309569 0.917714 0.000000 0.000000 0.000000 -3.099424 7.653132 -2.908026 5.319933 7.526811 2.092690 16.997734 18.482661 -4.907225 -12.838311 -27.073310 2.066475 0.000000 0.000000 0.000000 0.000000 0.000000 0.000000 42.654363 13.393202 8.242310 50.225021 -25.198821 29.617072 -2.127580 -46.559740 1.078640 32.889345 -31.412826 -4.920598 0.000000 0.000000 0.000000 0.000000 0.000000 0.000000 -11.399796 -21.808147 29.269121 10.337997 -14.395830 -5.680967 4.280922 5.311755 -4.491985 0.000000 0.000000 0.000000 23.818884 1.047802 23.303892 -84.385174 64.437857 75.697589 -10.835599 -70.113617 -40.016078 0.000000 0.000000 0.000000
-65.805507 87.595295 420.661422 4.273313 0.438898 -24.839847 -0.391614 -0.790446 24.919819 -0.346500 -0.253427 0.124869 9.391230 -8.851072 1.036470 0.000000 0.000000 0.000000 -1.829296 5.193088 -2.245612 3.167243 11.992925 1.401160 17.339581 13.498381 -3.239979 -15.577929 -19.124469 0.935914 0.000000 0.000000 0.000000 0.000000 0.000000 0.000000 42.555549 22.915033 6.729578 55.714346 -22.641330 38.498221 2.474463 -25.729846 -10.801470 28.197065 -29.781244 -30.708340 0.000000 0.000000 0.000000 0.000000 0.000000 0.000000 -13.163757 -21.053316 22.735187 9.511052 -14.559856 -5.644774 7.390958 12.203082 -7.542340 0.000000 0.000000 0.000000 23.318430 -2.211949 18.379562 -84.552720 64.660908 78.423249 -16.380488 -66.165735 -41.133871 0.000000 0.000000 0.000000
-64.054158 87.626982 418.676435 3.579559 0.806955 -19.493448 -0.475872 -0.739351 19.544221 -0.331409 -0.246763 0.094902 12.384596 -10.274896 1.290488 0.000000 0.000000 0.000000 -0.764438 2.300041 -1.259154 0.732124 15.416280 0.874724 17.454614 12.200258 -2.960647 -20.219527 -18.280937 -0.813351 0.000000 0.000000 0.000000 0.000000 0.000000 0.000000 42.871859 28.696030 5.914217 45.918105 -0.471894 29.336182 13.888033 -17.338650 -13.703454 31.126402 -29.976454 -31.487762 0.000000 0.000000 0.000000 0.000000 0.000000 0.000000 -14.253403 -20.386447 17.041603 8.090867 -14.938941 -5.574776 8.719870 14.495232 -7.165013 0.000000 0.000000 0.000000 22.892340 -4.673152 13.883686 -81.604695 65.231347 75.510812 -22.877881 -68.508042 -46.016783 0.000000 0.000000 0.000000
-62.169915 87.802706 416.912425 2.943953 1.067123 -15.182990 -0.540361 -0.707067 15.213339 -0.334404 -0.247646 0.066849 14.145593 -10.793031 1.350298 0.000000 0.000000 0.000000 -0.091203 -0.700760 -0.115240 -2.064073 18.164091 0.670660 17.829387 10.352981 -2.617730 -23.211491 -16.875522 -1.885904 0.000000 0.000000 0.000000 0.000000 0.000000 0.000000 42.290933 31.234879 5.678175 35.395872 19.731840 20.458949 15.786630 4.873653 -24.701165 43.993088 -26.243206 -20.255020 0.000000 0.000000 0.000000 0.000000 0.000000 0.000000 -15.244946 -19.431075 12.584207 6.504544 -15.990713 -5.668266 9.099576 15.384402 -4.919663 0.000000 0.000000 0.000000 22.279094 -6.835934 10.372826 -75.969646 66.183788 67.973095 -14.372523 -65.826930 -33.685457 0.000000 0.000000 0.000000
-60.373266 88.088029 415.368789 2.562168 1.317780 -10.987067 -0.733382 -0.812423 10.999032 -0.350961 -0.263223 0.042589 14.539618 -10.269997 1.083171 0.000000 0.000000 0.000000 0.749744 -3.190570 0.864900 -5.620201 19.470333 0.999181 18.699030 8.102524 -2.270603 -23.448738 -12.766612 -1.475334 0.000000 0.000000 0.000000 0.000000 0.000000 0.000000 41.106381 34.500011 5.312822 20.935043 41.259392 13.846772 5.260095 17.770562 -31.002957 60.512432 -24.221601 4.991663 0.000000 0.000000 0.000000 0.000000 0.000000 0.000000 -16.417407 -18.609079 8.229270 5.027106 -16.774556 -5.739922 10.144500 17.896930 -3.556138 0.000000 0.000000 0.000000 21.443496 -8.871478 6.846357 -69.813185 66.628441 59.804509 -11.092064 -66.463925 -28.268337 0.000000 0.000000 0.000000
-58.492650 88.600502 413.991830 1.732482 1.218571 -7.258438 -0.707338 -0.730359 7.261180 -0.938795 -0.582912 -0.029288 15.827528 -9.608254 0.917839 0.000000 0.000000 0.000000 1.422036 -5.350635 2.012949 -7.952632 19.591613 1.158775 18.788221 6.318529 -2.227840 -23.125313 -11.077449 -1.230798 0.000000 0.000000 0.000000 0.000000 0.000000 0.000000 38.865488 38.003285 4.944497 -0.769941 57.879264 14.961500 -3.043890 14.557386 -27.718236 55.923213 -23.432494 4.424686 0.000000 0.000000 0.000000 0.000000 0.000000 0.000000 -17.151364 -16.959968 4.697561 3.675852 -17.958090 -6.011668 9.691358 17.677520 0.159301 0.000000 0.000000 0.000000 20.855550 -10.711180 3.748011 -64.394143 67.122236 52.612243 -7.951722 -67.760890 -23.627584 0.000000 0.000000 0.000000
